<mxfile host="app.diagrams.net" modified="2024-07-03T22:37:01.829Z" agent="Mozilla/5.0 (Macintosh; Intel Mac OS X 10_15_7) AppleWebKit/537.36 (KHTML, like Gecko) Chrome/126.0.0.0 Safari/537.36" etag="d4vctHPTDPMu_6ysKkwn" version="24.6.4" type="github">
  <diagram name="Page-1" id="et8tMkmJSBQeN0szB0oO">
    <mxGraphModel dx="1777" dy="581" grid="1" gridSize="10" guides="1" tooltips="1" connect="1" arrows="1" fold="1" page="1" pageScale="1" pageWidth="583" pageHeight="827" math="0" shadow="0">
      <root>
        <mxCell id="0" />
        <mxCell id="1" parent="0" />
        <mxCell id="vPBJRZcepa8U3YhvUR2p-17" value="" style="edgeStyle=orthogonalEdgeStyle;rounded=0;orthogonalLoop=1;jettySize=auto;html=1;" edge="1" parent="1" source="vPBJRZcepa8U3YhvUR2p-2" target="vPBJRZcepa8U3YhvUR2p-6">
          <mxGeometry relative="1" as="geometry" />
        </mxCell>
        <mxCell id="vPBJRZcepa8U3YhvUR2p-2" value="" style="shape=actor;whiteSpace=wrap;html=1;" vertex="1" parent="1">
          <mxGeometry x="-260" y="195" width="40" height="60" as="geometry" />
        </mxCell>
        <mxCell id="vPBJRZcepa8U3YhvUR2p-66" style="edgeStyle=orthogonalEdgeStyle;rounded=0;orthogonalLoop=1;jettySize=auto;html=1;exitX=1;exitY=0.5;exitDx=0;exitDy=0;entryX=0;entryY=0.25;entryDx=0;entryDy=0;" edge="1" parent="1" source="vPBJRZcepa8U3YhvUR2p-3" target="vPBJRZcepa8U3YhvUR2p-42">
          <mxGeometry relative="1" as="geometry" />
        </mxCell>
        <mxCell id="vPBJRZcepa8U3YhvUR2p-3" value="Server 1" style="rounded=0;whiteSpace=wrap;html=1;" vertex="1" parent="1">
          <mxGeometry x="170" y="120" width="120" height="60" as="geometry" />
        </mxCell>
        <mxCell id="vPBJRZcepa8U3YhvUR2p-54" style="edgeStyle=orthogonalEdgeStyle;rounded=0;orthogonalLoop=1;jettySize=auto;html=1;exitX=1;exitY=0.5;exitDx=0;exitDy=0;entryX=0;entryY=0.5;entryDx=0;entryDy=0;" edge="1" parent="1" source="vPBJRZcepa8U3YhvUR2p-4" target="vPBJRZcepa8U3YhvUR2p-42">
          <mxGeometry relative="1" as="geometry">
            <mxPoint x="380" y="230" as="targetPoint" />
          </mxGeometry>
        </mxCell>
        <mxCell id="vPBJRZcepa8U3YhvUR2p-4" value="Server 2" style="rounded=0;whiteSpace=wrap;html=1;" vertex="1" parent="1">
          <mxGeometry x="172" y="200" width="120" height="60" as="geometry" />
        </mxCell>
        <mxCell id="vPBJRZcepa8U3YhvUR2p-67" style="edgeStyle=orthogonalEdgeStyle;rounded=0;orthogonalLoop=1;jettySize=auto;html=1;exitX=1;exitY=0.5;exitDx=0;exitDy=0;entryX=0;entryY=0.75;entryDx=0;entryDy=0;" edge="1" parent="1" source="vPBJRZcepa8U3YhvUR2p-5" target="vPBJRZcepa8U3YhvUR2p-42">
          <mxGeometry relative="1" as="geometry" />
        </mxCell>
        <mxCell id="vPBJRZcepa8U3YhvUR2p-73" style="edgeStyle=orthogonalEdgeStyle;rounded=0;orthogonalLoop=1;jettySize=auto;html=1;exitX=0.5;exitY=1;exitDx=0;exitDy=0;entryX=0.5;entryY=0;entryDx=0;entryDy=0;" edge="1" parent="1" source="vPBJRZcepa8U3YhvUR2p-5">
          <mxGeometry relative="1" as="geometry">
            <mxPoint x="230" y="400" as="targetPoint" />
          </mxGeometry>
        </mxCell>
        <mxCell id="vPBJRZcepa8U3YhvUR2p-80" style="edgeStyle=orthogonalEdgeStyle;rounded=0;orthogonalLoop=1;jettySize=auto;html=1;exitX=0.25;exitY=1;exitDx=0;exitDy=0;" edge="1" parent="1" source="vPBJRZcepa8U3YhvUR2p-5" target="vPBJRZcepa8U3YhvUR2p-79">
          <mxGeometry relative="1" as="geometry" />
        </mxCell>
        <mxCell id="vPBJRZcepa8U3YhvUR2p-5" value="Server 3" style="rounded=0;whiteSpace=wrap;html=1;" vertex="1" parent="1">
          <mxGeometry x="170" y="280" width="120" height="60" as="geometry" />
        </mxCell>
        <mxCell id="vPBJRZcepa8U3YhvUR2p-8" style="edgeStyle=orthogonalEdgeStyle;rounded=0;orthogonalLoop=1;jettySize=auto;html=1;exitX=0.5;exitY=0;exitDx=0;exitDy=0;entryX=0;entryY=0.25;entryDx=0;entryDy=0;" edge="1" parent="1" source="vPBJRZcepa8U3YhvUR2p-6" target="vPBJRZcepa8U3YhvUR2p-3">
          <mxGeometry relative="1" as="geometry" />
        </mxCell>
        <mxCell id="vPBJRZcepa8U3YhvUR2p-9" style="edgeStyle=orthogonalEdgeStyle;rounded=0;orthogonalLoop=1;jettySize=auto;html=1;exitX=0.5;exitY=1;exitDx=0;exitDy=0;entryX=0;entryY=0.75;entryDx=0;entryDy=0;" edge="1" parent="1" source="vPBJRZcepa8U3YhvUR2p-6" target="vPBJRZcepa8U3YhvUR2p-5">
          <mxGeometry relative="1" as="geometry" />
        </mxCell>
        <mxCell id="vPBJRZcepa8U3YhvUR2p-71" style="edgeStyle=orthogonalEdgeStyle;rounded=0;orthogonalLoop=1;jettySize=auto;html=1;exitX=0.25;exitY=0;exitDx=0;exitDy=0;entryX=0.5;entryY=0;entryDx=0;entryDy=0;" edge="1" parent="1" source="vPBJRZcepa8U3YhvUR2p-6" target="vPBJRZcepa8U3YhvUR2p-2">
          <mxGeometry relative="1" as="geometry" />
        </mxCell>
        <mxCell id="vPBJRZcepa8U3YhvUR2p-6" value="Load Balancer" style="rounded=0;whiteSpace=wrap;html=1;" vertex="1" parent="1">
          <mxGeometry x="-30" y="200" width="100" height="50" as="geometry" />
        </mxCell>
        <mxCell id="vPBJRZcepa8U3YhvUR2p-15" value="1.1 Sends Creates Short URL&amp;nbsp;&lt;div&gt;Request&lt;/div&gt;" style="text;html=1;align=center;verticalAlign=middle;resizable=0;points=[];autosize=1;strokeColor=none;fillColor=none;" vertex="1" parent="1">
          <mxGeometry x="-230" y="190" width="190" height="40" as="geometry" />
        </mxCell>
        <mxCell id="vPBJRZcepa8U3YhvUR2p-18" value="createShortURL(long_url, user_id)&lt;div&gt;getShortUrl(long_url, user_id) returns short_url&lt;/div&gt;" style="text;html=1;align=center;verticalAlign=middle;resizable=0;points=[];autosize=1;strokeColor=none;fillColor=none;" vertex="1" parent="1">
          <mxGeometry x="-185" y="25" width="270" height="40" as="geometry" />
        </mxCell>
        <mxCell id="vPBJRZcepa8U3YhvUR2p-19" value="URL Generator" style="rounded=0;whiteSpace=wrap;html=1;" vertex="1" parent="1">
          <mxGeometry x="560" y="75" width="120" height="60" as="geometry" />
        </mxCell>
        <mxCell id="vPBJRZcepa8U3YhvUR2p-28" style="edgeStyle=orthogonalEdgeStyle;rounded=0;orthogonalLoop=1;jettySize=auto;html=1;exitX=0.5;exitY=1;exitDx=0;exitDy=0;entryX=0.5;entryY=0;entryDx=0;entryDy=0;" edge="1" parent="1" source="vPBJRZcepa8U3YhvUR2p-20" target="vPBJRZcepa8U3YhvUR2p-26">
          <mxGeometry relative="1" as="geometry" />
        </mxCell>
        <mxCell id="vPBJRZcepa8U3YhvUR2p-20" value="URL Generator" style="rounded=0;whiteSpace=wrap;html=1;" vertex="1" parent="1">
          <mxGeometry x="730" y="75" width="120" height="60" as="geometry" />
        </mxCell>
        <mxCell id="vPBJRZcepa8U3YhvUR2p-21" value="Keys" style="shape=cylinder3;whiteSpace=wrap;html=1;boundedLbl=1;backgroundOutline=1;size=15;" vertex="1" parent="1">
          <mxGeometry x="643" y="300" width="60" height="80" as="geometry" />
        </mxCell>
        <mxCell id="vPBJRZcepa8U3YhvUR2p-22" value="SQL DB to achieve concurrency&lt;div&gt;ACID - Achieves Atomicity and Isolation&lt;/div&gt;&lt;div&gt;in case of 2 requests trying to access same keys&lt;/div&gt;" style="text;html=1;align=center;verticalAlign=middle;resizable=0;points=[];autosize=1;strokeColor=none;fillColor=none;" vertex="1" parent="1">
          <mxGeometry x="540" y="380" width="280" height="60" as="geometry" />
        </mxCell>
        <mxCell id="vPBJRZcepa8U3YhvUR2p-23" value="Keys are pre-populated not all but&amp;nbsp;&lt;div&gt;keeps on updating asynchronously&lt;/div&gt;" style="text;html=1;align=center;verticalAlign=middle;resizable=0;points=[];autosize=1;strokeColor=none;fillColor=none;" vertex="1" parent="1">
          <mxGeometry x="700" y="320" width="210" height="40" as="geometry" />
        </mxCell>
        <mxCell id="vPBJRZcepa8U3YhvUR2p-24" value="Cache&lt;div&gt;Holds a subset of unused keys and marks them as True (Used) within keys DB&lt;/div&gt;" style="rounded=0;whiteSpace=wrap;html=1;" vertex="1" parent="1">
          <mxGeometry x="550" y="180" width="120" height="90" as="geometry" />
        </mxCell>
        <mxCell id="vPBJRZcepa8U3YhvUR2p-26" value="Cache&lt;div&gt;Holds a subset of unused keys and marks them as True (Used) within keys DB&lt;/div&gt;" style="rounded=0;whiteSpace=wrap;html=1;" vertex="1" parent="1">
          <mxGeometry x="730" y="180" width="120" height="90" as="geometry" />
        </mxCell>
        <mxCell id="vPBJRZcepa8U3YhvUR2p-27" style="edgeStyle=orthogonalEdgeStyle;rounded=0;orthogonalLoop=1;jettySize=auto;html=1;exitX=0.5;exitY=1;exitDx=0;exitDy=0;entryX=0.583;entryY=0.013;entryDx=0;entryDy=0;entryPerimeter=0;" edge="1" parent="1" source="vPBJRZcepa8U3YhvUR2p-19" target="vPBJRZcepa8U3YhvUR2p-24">
          <mxGeometry relative="1" as="geometry" />
        </mxCell>
        <mxCell id="vPBJRZcepa8U3YhvUR2p-29" style="edgeStyle=orthogonalEdgeStyle;rounded=0;orthogonalLoop=1;jettySize=auto;html=1;exitX=0.5;exitY=1;exitDx=0;exitDy=0;entryX=0;entryY=0;entryDx=0;entryDy=27.5;entryPerimeter=0;" edge="1" parent="1" source="vPBJRZcepa8U3YhvUR2p-24" target="vPBJRZcepa8U3YhvUR2p-21">
          <mxGeometry relative="1" as="geometry" />
        </mxCell>
        <mxCell id="vPBJRZcepa8U3YhvUR2p-30" style="edgeStyle=orthogonalEdgeStyle;rounded=0;orthogonalLoop=1;jettySize=auto;html=1;exitX=0.5;exitY=1;exitDx=0;exitDy=0;entryX=0.683;entryY=0.025;entryDx=0;entryDy=0;entryPerimeter=0;" edge="1" parent="1" source="vPBJRZcepa8U3YhvUR2p-26" target="vPBJRZcepa8U3YhvUR2p-21">
          <mxGeometry relative="1" as="geometry" />
        </mxCell>
        <mxCell id="vPBJRZcepa8U3YhvUR2p-36" value="" style="endArrow=none;html=1;rounded=0;" edge="1" parent="1">
          <mxGeometry width="50" height="50" relative="1" as="geometry">
            <mxPoint x="520" y="450" as="sourcePoint" />
            <mxPoint x="900" y="450" as="targetPoint" />
          </mxGeometry>
        </mxCell>
        <mxCell id="vPBJRZcepa8U3YhvUR2p-37" value="" style="endArrow=none;html=1;rounded=0;" edge="1" parent="1">
          <mxGeometry width="50" height="50" relative="1" as="geometry">
            <mxPoint x="520" y="450" as="sourcePoint" />
            <mxPoint x="520" y="50" as="targetPoint" />
          </mxGeometry>
        </mxCell>
        <mxCell id="vPBJRZcepa8U3YhvUR2p-41" value="" style="endArrow=none;html=1;rounded=0;" edge="1" parent="1">
          <mxGeometry width="50" height="50" relative="1" as="geometry">
            <mxPoint x="900" y="450" as="sourcePoint" />
            <mxPoint x="900" y="50" as="targetPoint" />
          </mxGeometry>
        </mxCell>
        <mxCell id="vPBJRZcepa8U3YhvUR2p-49" style="edgeStyle=orthogonalEdgeStyle;rounded=0;orthogonalLoop=1;jettySize=auto;html=1;exitX=1;exitY=0.5;exitDx=0;exitDy=0;" edge="1" parent="1" source="vPBJRZcepa8U3YhvUR2p-42">
          <mxGeometry relative="1" as="geometry">
            <mxPoint x="520" y="225" as="targetPoint" />
          </mxGeometry>
        </mxCell>
        <mxCell id="vPBJRZcepa8U3YhvUR2p-68" style="edgeStyle=orthogonalEdgeStyle;rounded=0;orthogonalLoop=1;jettySize=auto;html=1;exitX=0.5;exitY=0;exitDx=0;exitDy=0;entryX=1;entryY=0.25;entryDx=0;entryDy=0;" edge="1" parent="1" source="vPBJRZcepa8U3YhvUR2p-42" target="vPBJRZcepa8U3YhvUR2p-3">
          <mxGeometry relative="1" as="geometry" />
        </mxCell>
        <mxCell id="vPBJRZcepa8U3YhvUR2p-42" value="Load Balancer" style="rounded=0;whiteSpace=wrap;html=1;" vertex="1" parent="1">
          <mxGeometry x="370" y="205" width="100" height="50" as="geometry" />
        </mxCell>
        <mxCell id="vPBJRZcepa8U3YhvUR2p-48" value="" style="endArrow=none;html=1;rounded=0;" edge="1" parent="1">
          <mxGeometry width="50" height="50" relative="1" as="geometry">
            <mxPoint x="520" y="50" as="sourcePoint" />
            <mxPoint x="900" y="50" as="targetPoint" />
          </mxGeometry>
        </mxCell>
        <mxCell id="vPBJRZcepa8U3YhvUR2p-45" value="Multiple Instances of URL Generator Service" style="text;html=1;align=center;verticalAlign=middle;resizable=0;points=[];autosize=1;strokeColor=none;fillColor=none;" vertex="1" parent="1">
          <mxGeometry x="560" y="50" width="260" height="30" as="geometry" />
        </mxCell>
        <mxCell id="vPBJRZcepa8U3YhvUR2p-56" value="1.2 Assigns the server" style="text;html=1;align=center;verticalAlign=middle;resizable=0;points=[];autosize=1;strokeColor=none;fillColor=none;" vertex="1" parent="1">
          <mxGeometry x="10" y="105" width="140" height="30" as="geometry" />
        </mxCell>
        <mxCell id="vPBJRZcepa8U3YhvUR2p-59" style="edgeStyle=orthogonalEdgeStyle;rounded=0;orthogonalLoop=1;jettySize=auto;html=1;exitX=0;exitY=0.5;exitDx=0;exitDy=0;entryX=0.87;entryY=0.02;entryDx=0;entryDy=0;entryPerimeter=0;" edge="1" parent="1" source="vPBJRZcepa8U3YhvUR2p-19" target="vPBJRZcepa8U3YhvUR2p-42">
          <mxGeometry relative="1" as="geometry" />
        </mxCell>
        <mxCell id="vPBJRZcepa8U3YhvUR2p-60" value="1.5 Returns the Response&lt;div&gt;Success / Failure&lt;/div&gt;" style="text;html=1;align=center;verticalAlign=middle;resizable=0;points=[];autosize=1;strokeColor=none;fillColor=none;fontSize=11;" vertex="1" parent="1">
          <mxGeometry x="375" y="60" width="150" height="40" as="geometry" />
        </mxCell>
        <mxCell id="vPBJRZcepa8U3YhvUR2p-62" value="1.4 Selects the URL&amp;nbsp;&lt;div&gt;Generator instance&lt;/div&gt;" style="text;html=1;align=center;verticalAlign=middle;resizable=0;points=[];autosize=1;strokeColor=none;fillColor=none;fontSize=11;" vertex="1" parent="1">
          <mxGeometry x="370" y="260" width="120" height="40" as="geometry" />
        </mxCell>
        <mxCell id="vPBJRZcepa8U3YhvUR2p-65" style="edgeStyle=orthogonalEdgeStyle;rounded=0;orthogonalLoop=1;jettySize=auto;html=1;exitX=1;exitY=0.5;exitDx=0;exitDy=0;entryX=0.008;entryY=0.383;entryDx=0;entryDy=0;entryPerimeter=0;" edge="1" parent="1" source="vPBJRZcepa8U3YhvUR2p-6" target="vPBJRZcepa8U3YhvUR2p-4">
          <mxGeometry relative="1" as="geometry" />
        </mxCell>
        <mxCell id="vPBJRZcepa8U3YhvUR2p-69" value="1.6 Sends the Response&lt;div&gt;Success / Failure&lt;/div&gt;" style="text;html=1;align=center;verticalAlign=middle;resizable=0;points=[];autosize=1;strokeColor=none;fillColor=none;fontSize=11;" vertex="1" parent="1">
          <mxGeometry x="297" y="95" width="140" height="40" as="geometry" />
        </mxCell>
        <mxCell id="vPBJRZcepa8U3YhvUR2p-70" value="1.7 Sends the Response&lt;div&gt;Success / Failure&lt;/div&gt;" style="text;html=1;align=center;verticalAlign=middle;resizable=0;points=[];autosize=1;strokeColor=none;fillColor=none;fontSize=11;" vertex="1" parent="1">
          <mxGeometry x="-205" y="140" width="140" height="40" as="geometry" />
        </mxCell>
        <mxCell id="vPBJRZcepa8U3YhvUR2p-74" value="URLs" style="shape=cylinder3;whiteSpace=wrap;html=1;boundedLbl=1;backgroundOutline=1;size=15;" vertex="1" parent="1">
          <mxGeometry x="202" y="400" width="60" height="80" as="geometry" />
        </mxCell>
        <mxCell id="vPBJRZcepa8U3YhvUR2p-75" value="NoSQL DB" style="text;html=1;align=center;verticalAlign=middle;resizable=0;points=[];autosize=1;strokeColor=none;fillColor=none;" vertex="1" parent="1">
          <mxGeometry x="192" y="498" width="80" height="30" as="geometry" />
        </mxCell>
        <mxCell id="vPBJRZcepa8U3YhvUR2p-76" value="Long url,&lt;div&gt;Short url,&lt;/div&gt;&lt;div&gt;expiration&lt;/div&gt;&lt;div&gt;user id&lt;/div&gt;" style="text;html=1;align=center;verticalAlign=middle;resizable=0;points=[];autosize=1;strokeColor=none;fillColor=none;" vertex="1" parent="1">
          <mxGeometry x="192" y="520" width="80" height="70" as="geometry" />
        </mxCell>
        <mxCell id="vPBJRZcepa8U3YhvUR2p-77" style="edgeStyle=orthogonalEdgeStyle;rounded=0;orthogonalLoop=1;jettySize=auto;html=1;exitX=1;exitY=0.5;exitDx=0;exitDy=0;exitPerimeter=0;entryX=0;entryY=0.5;entryDx=0;entryDy=0;entryPerimeter=0;" edge="1" parent="1" source="vPBJRZcepa8U3YhvUR2p-74" target="vPBJRZcepa8U3YhvUR2p-21">
          <mxGeometry relative="1" as="geometry" />
        </mxCell>
        <mxCell id="vPBJRZcepa8U3YhvUR2p-78" value="Expiration? Mark the keys as Used = False and&amp;nbsp;&lt;div&gt;also delete long url entry from URLs DB&lt;/div&gt;" style="text;html=1;align=center;verticalAlign=middle;resizable=0;points=[];autosize=1;strokeColor=none;fillColor=none;" vertex="1" parent="1">
          <mxGeometry x="257" y="450" width="280" height="40" as="geometry" />
        </mxCell>
        <mxCell id="vPBJRZcepa8U3YhvUR2p-81" style="edgeStyle=orthogonalEdgeStyle;rounded=0;orthogonalLoop=1;jettySize=auto;html=1;exitX=0.5;exitY=1;exitDx=0;exitDy=0;" edge="1" parent="1" source="vPBJRZcepa8U3YhvUR2p-79" target="vPBJRZcepa8U3YhvUR2p-74">
          <mxGeometry relative="1" as="geometry" />
        </mxCell>
        <mxCell id="vPBJRZcepa8U3YhvUR2p-79" value="Cache&lt;div&gt;LRU&lt;/div&gt;" style="rounded=0;whiteSpace=wrap;html=1;" vertex="1" parent="1">
          <mxGeometry x="30" y="384" width="120" height="60" as="geometry" />
        </mxCell>
      </root>
    </mxGraphModel>
  </diagram>
</mxfile>
